<?xml version="1.0" encoding="UTF-8" standalone="no"?>
<svg
   xmlns:dc="http://purl.org/dc/elements/1.1/"
   xmlns:cc="http://creativecommons.org/ns#"
   xmlns:rdf="http://www.w3.org/1999/02/22-rdf-syntax-ns#"
   xmlns:svg="http://www.w3.org/2000/svg"
   xmlns="http://www.w3.org/2000/svg"
   style="fill:none"
   id="svg114"
   version="1.1"
   viewBox="0 0 200 124"
   height="124"
   width="200">
  <metadata
     id="metadata118">
    <rdf:RDF>
      <cc:Work
         rdf:about="">
        <dc:format>image/svg+xml</dc:format>
        <dc:type
           rdf:resource="http://purl.org/dc/dcmitype/StillImage" />
      </cc:Work>
    </rdf:RDF>
  </metadata>
  <g
     style="filter:url(#filter0_d)"
     id="g92">
    <path
       style="fill:#0c66ff"
       id="path2"
       d="m 16,0 h 145.6 c 5.956,0 8.934,0 11.344,0.783096 4.871,1.582684 8.69,5.401624 10.273,10.272604 C 184,13.4658 184,16.4439 184,22.4 v 47.2 c 0,5.9561 0,8.9342 -0.783,11.3443 -1.583,4.871 -5.402,8.6899 -10.273,10.2726 C 170.534,92 167.556,92 161.6,92 H 38.4 C 32.4439,92 29.4658,92 27.0557,91.2169 22.1847,89.6342 18.3658,85.8153 16.7831,80.9443 16,78.5342 16,75.5561 16,69.6 Z" />
    <g
       id="g90"
       clip-path="url(#clip0)">
      <path
         style="fill:#ffffff"
         id="path4"
         d="m 41.5753,21.1292 c -0.348,-2.1776 -2.0532,-3.4503 -4.2059,-3.4503 -2.635,0 -4.5789,1.9737 -4.5789,5.2301 0,3.2564 1.934,5.2301 4.5789,5.2301 2.2372,0 3.8728,-1.402 4.2059,-3.4155 l -1.5511,-0.0049 c -0.2635,1.3025 -1.3573,2.0184 -2.6449,2.0184 -1.745,0 -3.0625,-1.3373 -3.0625,-3.8281 0,-2.4709 1.3125,-3.8281 3.0675,-3.8281 1.2976,0 2.3863,0.7308 2.6399,2.0483 z" />
      <path
         style="fill:#ffffff"
         id="path6"
         d="m 44.7808,23.4658 c 0,-1.218 0.7706,-1.914 1.8295,-1.914 1.0242,0 1.6357,0.6512 1.6357,1.7698 v 4.6783 h 1.4865 v -4.8572 c 0,-1.9042 -1.0441,-2.8786 -2.6151,-2.8786 -1.1882,0 -1.9041,0.5171 -2.2621,1.3423 h -0.0944 v -3.7883 h -1.4666 v 10.1818 h 1.4865 z" />
      <path
         style="fill:#ffffff"
         id="path8"
         d="m 53.9384,28.1689 c 1.2628,0 1.9738,-0.6413 2.2571,-1.213 h 0.0597 v 1.044 h 1.4517 v -5.071 c 0,-2.2223 -1.75,-2.6648 -2.9631,-2.6648 -1.3821,0 -2.6548,0.5568 -3.152,1.9489 l 1.3971,0.3182 c 0.2187,-0.5419 0.7755,-1.064 1.7748,-1.064 0.9595,0 1.4517,0.5022 1.4517,1.3672 v 0.0348 c 0,0.5419 -0.5568,0.532 -1.929,0.6911 -1.4467,0.169 -2.9282,0.5469 -2.9282,2.2819 0,1.5015 1.1285,2.3267 2.5802,2.3267 z m 0.3232,-1.1931 c -0.8402,0 -1.4467,-0.3779 -1.4467,-1.1137 0,-0.7954 0.7059,-1.0788 1.566,-1.1932 0.4822,-0.0646 1.6257,-0.1938 1.8395,-0.4076 v 0.9844 c 0,0.9048 -0.7209,1.7301 -1.9588,1.7301 z" />
      <path
         style="fill:#ffffff"
         id="path10"
         d="M 63.2515,20.3635 H 61.6854 V 18.534 h -1.4865 v 1.8295 h -1.1186 v 1.1932 h 1.1186 v 4.5093 c -0.005,1.387 1.054,2.0582 2.2273,2.0333 0.4723,-0.0049 0.7905,-0.0944 0.9645,-0.159 l -0.2685,-1.228 c -0.0994,0.0199 -0.2834,0.0646 -0.522,0.0646 -0.4823,0 -0.9148,-0.1591 -0.9148,-1.0192 v -4.201 h 1.5661 z" />
      <path
         style="fill:#ffffff"
         id="path12"
         d="m 68.7202,27.9999 h 1.4517 v -1.1882 h 0.1243 c 0.2685,0.4872 0.8154,1.3374 2.2074,1.3374 1.8494,0 3.1918,-1.4816 3.1918,-3.9525 0,-2.4758 -1.3623,-3.9325 -3.2067,-3.9325 -1.4169,0 -1.929,0.8651 -2.1925,1.3374 h -0.0895 v -3.7834 h -1.4865 z m 1.4567,-3.8182 c 0,-1.5959 0.696,-2.6548 1.9936,-2.6548 1.3473,0 2.0234,1.1385 2.0234,2.6548 0,1.5313 -0.696,2.6996 -2.0234,2.6996 -1.2777,0 -1.9936,-1.0937 -1.9936,-2.6996 z" />
      <path
         style="fill:#ffffff"
         id="path14"
         d="m 82.2019,24.833 c 0.005,1.2976 -0.9595,1.9141 -1.7947,1.9141 -0.9198,0 -1.5561,-0.6662 -1.5561,-1.7053 v -4.6783 h -1.4865 v 4.8573 c 0,1.8942 1.039,2.8785 2.5057,2.8785 1.1484,0 1.9289,-0.6065 2.2819,-1.4218 h 0.0796 v 1.3224 h 1.4616 v -7.6364 h -1.4915 z" />
      <path
         style="fill:#ffffff"
         id="path16"
         d="m 85.8101,27.9999 h 1.4517 v -1.1882 h 0.1243 c 0.2684,0.4872 0.8153,1.3374 2.2073,1.3374 1.8495,0 3.1918,-1.4816 3.1918,-3.9525 0,-2.4758 -1.3622,-3.9325 -3.2067,-3.9325 -1.4169,0 -1.929,0.8651 -2.1924,1.3374 h -0.0895 v -3.7834 h -1.4865 z m 1.4566,-3.8182 c 0,-1.5959 0.6961,-2.6548 1.9936,-2.6548 1.3473,0 2.0235,1.1385 2.0235,2.6548 0,1.5313 -0.696,2.6996 -2.0235,2.6996 -1.2777,0 -1.9936,-1.0937 -1.9936,-2.6996 z" />
      <path
         style="fill:#ffffff"
         id="path18"
         d="m 94.5737,27.9999 h 1.4517 v -1.1882 h 0.1243 c 0.2685,0.4872 0.8154,1.3374 2.2074,1.3374 1.8499,0 3.1919,-1.4816 3.1919,-3.9525 0,-2.4758 -1.362,-3.9325 -3.2068,-3.9325 -1.4169,0 -1.929,0.8651 -2.1925,1.3374 h -0.0895 v -3.7834 h -1.4865 z m 1.4567,-3.8182 c 0,-1.5959 0.696,-2.6548 1.9936,-2.6548 1.3473,0 2.023,1.1385 2.023,2.6548 0,1.5313 -0.6956,2.6996 -2.023,2.6996 -1.2777,0 -1.9936,-1.0937 -1.9936,-2.6996 z" />
      <path
         style="fill:#ffffff"
         id="path20"
         d="m 104.705,17.8181 h -1.487 v 10.1818 h 1.487 z" />
      <path
         style="fill:#ffffff"
         id="path22"
         d="m 109.996,28.154 c 1.665,0 2.843,-0.8203 3.181,-2.0632 l -1.407,-0.2535 c -0.268,0.7209 -0.914,1.0887 -1.759,1.0887 -1.273,0 -2.128,-0.8252 -2.168,-2.2968 h 5.429 v -0.527 c 0,-2.7592 -1.651,-3.8381 -3.381,-3.8381 -2.128,0 -3.53,1.6208 -3.53,3.9673 0,2.3715 1.382,3.9226 3.635,3.9226 z m -2.148,-4.6385 c 0.06,-1.0838 0.845,-2.0234 2.053,-2.0234 1.154,0 1.909,0.8551 1.914,2.0234 z" />
      <path
         style="fill:#ffffff"
         id="path24"
         d="m 122.261,20.3635 h -1.646 v -0.686 c 0,-0.6762 0.278,-1.0441 1.004,-1.0441 0.308,0 0.527,0.0696 0.666,0.1144 l 0.348,-1.2031 c -0.208,-0.0796 -0.641,-0.2039 -1.243,-0.2039 -1.208,0 -2.267,0.706 -2.267,2.1378 v 0.8849 h -1.178 v 1.1932 h 1.178 v 6.4432 h 1.492 v -6.4432 h 1.646 z" />
      <path
         style="fill:#ffffff"
         id="path26"
         d="m 126.71,28.154 c 2.153,0 3.56,-1.576 3.56,-3.9375 0,-2.3764 -1.407,-3.9524 -3.56,-3.9524 -2.153,0 -3.56,1.576 -3.56,3.9524 0,2.3615 1.407,3.9375 3.56,3.9375 z m 0.005,-1.2478 c -1.407,0 -2.063,-1.228 -2.063,-2.6946 0,-1.4617 0.656,-2.7046 2.063,-2.7046 1.397,0 2.053,1.2429 2.053,2.7046 0,1.4666 -0.656,2.6946 -2.053,2.6946 z" />
      <path
         style="fill:#ffffff"
         id="path28"
         d="m 131.929,27.9999 h 1.487 v -4.6633 c 0,-0.9993 0.77,-1.7202 1.824,-1.7202 0.308,0 0.656,0.0547 0.776,0.0895 V 20.284 c -0.149,-0.0199 -0.443,-0.0348 -0.632,-0.0348 -0.895,0 -1.66,0.5071 -1.939,1.3274 h -0.079 v -1.2131 h -1.437 z" />
      <path
         style="fill:#ffffff"
         id="path30"
         d="m 32.9993,49.9999 h 1.4865 v -4.7081 c 0,-1.0291 0.7209,-1.745 1.5661,-1.745 0.8253,0 1.397,0.5469 1.397,1.3771 v 5.076 h 1.4815 v -4.8672 c 0,-0.9197 0.5618,-1.5859 1.5313,-1.5859 0.7855,0 1.4318,0.4375 1.4318,1.4716 v 4.9815 H 43.38 v -5.1207 c 0,-1.7451 -0.9744,-2.6151 -2.3565,-2.6151 -1.0987,0 -1.924,0.527 -2.2919,1.3423 H 38.652 c -0.3331,-0.8352 -1.0341,-1.3423 -2.0532,-1.3423 -1.0093,0 -1.76,0.5021 -2.0782,1.3423 h -0.0944 v -1.2429 h -1.4269 z" />
      <path
         style="fill:#ffffff"
         id="path32"
         d="m 48.6636,50.154 c 1.6655,0 2.8437,-0.8203 3.1818,-2.0632 l -1.407,-0.2535 c -0.2684,0.7208 -0.9147,1.0887 -1.7599,1.0887 -1.2727,0 -2.1279,-0.8252 -2.1676,-2.2968 h 5.429 v -0.527 c 0,-2.7592 -1.6506,-3.8381 -3.3807,-3.8381 -2.1279,0 -3.5299,1.6208 -3.5299,3.9673 0,2.3715 1.3821,3.9226 3.6343,3.9226 z m -2.1478,-4.6385 c 0.0597,-1.0838 0.8452,-2.0234 2.0533,-2.0234 1.1534,0 1.9091,0.8551 1.9141,2.0234 z" />
      <path
         style="fill:#ffffff"
         id="path34"
         d="m 59.3115,44.2279 c -0.3083,-1.1882 -1.2379,-1.9638 -2.8885,-1.9638 -1.7252,0 -2.9482,0.9098 -2.9482,2.2621 0,1.0838 0.6563,1.8047 2.0881,2.1229 l 1.2926,0.2833 c 0.7358,0.1641 1.0788,0.4922 1.0788,0.9695 0,0.5916 -0.6313,1.054 -1.6058,1.054 -0.8899,0 -1.4616,-0.3828 -1.6406,-1.1335 l -1.4368,0.2187 c 0.2486,1.3523 1.3722,2.1129 3.0874,2.1129 1.8444,0 3.1221,-0.9794 3.1221,-2.3615 0,-1.0788 -0.6861,-1.745 -2.088,-2.0682 l -1.2131,-0.2784 c -0.8402,-0.1988 -1.2031,-0.4822 -1.1982,-0.9993 -0.0049,-0.5866 0.6314,-1.0042 1.4766,-1.0042 0.9247,0 1.3523,0.5121 1.5263,1.0241 z" />
      <path
         style="fill:#ffffff"
         id="path36"
         d="m 66.8173,44.2279 c -0.3082,-1.1882 -1.2379,-1.9638 -2.8885,-1.9638 -1.7251,0 -2.9481,0.9098 -2.9481,2.2621 0,1.0838 0.6562,1.8047 2.0881,2.1229 l 1.2926,0.2833 c 0.7358,0.1641 1.0788,0.4922 1.0788,0.9695 0,0.5916 -0.6314,1.054 -1.6058,1.054 -0.8899,0 -1.4617,-0.3828 -1.6406,-1.1335 l -1.4368,0.2187 c 0.2485,1.3523 1.3721,2.1129 3.0873,2.1129 1.8445,0 3.1222,-0.9794 3.1222,-2.3615 0,-1.0788 -0.6861,-1.745 -2.0881,-2.0682 l -1.2131,-0.2784 c -0.8401,-0.1988 -1.2031,-0.4822 -1.1981,-0.9993 -0.005,-0.5866 0.6314,-1.0042 1.4766,-1.0042 0.9247,0 1.3522,0.5121 1.5262,1.0241 z" />
      <path
         style="fill:#ffffff"
         id="path38"
         d="m 70.8232,50.1689 c 1.2628,0 1.9737,-0.6413 2.2571,-1.213 H 73.14 v 1.044 h 1.4517 v -5.071 c 0,-2.2223 -1.75,-2.6648 -2.9631,-2.6648 -1.3821,0 -2.6548,0.5568 -3.152,1.9489 l 1.397,0.3182 c 0.2188,-0.5419 0.7756,-1.064 1.7749,-1.064 0.9595,0 1.4517,0.5022 1.4517,1.3672 v 0.0348 c 0,0.5419 -0.5568,0.532 -1.929,0.6911 -1.4467,0.169 -2.9283,0.5469 -2.9283,2.2819 0,1.5015 1.1286,2.3267 2.5803,2.3267 z m 0.3232,-1.1931 c -0.8402,0 -1.4468,-0.3779 -1.4468,-1.1137 0,-0.7954 0.706,-1.0788 1.5661,-1.1932 0.4822,-0.0646 1.6257,-0.1938 1.8395,-0.4076 v 0.9844 c 0,0.9048 -0.7209,1.7301 -1.9588,1.7301 z" />
      <path
         style="fill:#ffffff"
         id="path40"
         d="m 79.7733,53.0077 c 1.9439,0 3.4453,-0.8899 3.4453,-2.8388 v -7.8054 h -1.4567 v 1.238 h -0.1093 c -0.2635,-0.4723 -0.7905,-1.3374 -2.2124,-1.3374 -1.8445,0 -3.2017,1.4567 -3.2017,3.8878 0,2.4361 1.3871,3.7337 3.1918,3.7337 1.402,0 1.9439,-0.7905 2.2123,-1.2777 h 0.0945 v 1.5014 c 0,1.1783 -0.8203,1.7003 -1.9489,1.7003 -1.2379,0 -1.7202,-0.6215 -1.9836,-1.0441 l -1.2777,0.527 c 0.4027,0.9198 1.4218,1.7152 3.2464,1.7152 z m -0.0149,-4.3551 c -1.3274,0 -2.0185,-1.0192 -2.0185,-2.5206 0,-1.4666 0.6762,-2.6051 2.0185,-2.6051 1.2976,0 1.9936,1.0589 1.9936,2.6051 0,1.576 -0.7109,2.5206 -1.9936,2.5206 z" />
      <path
         style="fill:#ffffff"
         id="path42"
         d="m 88.5034,50.154 c 1.6655,0 2.8438,-0.8203 3.1818,-2.0632 l -1.4069,-0.2535 c -0.2685,0.7208 -0.9148,1.0887 -1.76,1.0887 -1.2727,0 -2.1278,-0.8252 -2.1676,-2.2968 h 5.429 v -0.527 c 0,-2.7592 -1.6506,-3.8381 -3.3807,-3.8381 -2.1278,0 -3.5298,1.6208 -3.5298,3.9673 0,2.3715 1.3821,3.9226 3.6342,3.9226 z m -2.1477,-4.6385 c 0.0596,-1.0838 0.8452,-2.0234 2.0533,-2.0234 1.1534,0 1.909,0.8551 1.914,2.0234 z" />
      <path
         style="fill:#ffffff"
         id="path44"
         d="m 97.1341,49.9999 h 1.4865 v -7.6364 h -1.4865 z m 0.7507,-8.8146 c 0.5121,0 0.9396,-0.3977 0.9396,-0.885 0,-0.4872 -0.4275,-0.8899 -0.9396,-0.8899 -0.517,0 -0.9396,0.4027 -0.9396,0.8899 0,0.4873 0.4226,0.885 0.9396,0.885 z" />
      <path
         style="fill:#ffffff"
         id="path46"
         d="m 102.107,45.4658 c 0,-1.218 0.746,-1.914 1.78,-1.914 1.009,0 1.62,0.6612 1.62,1.7698 v 4.6783 h 1.487 v -4.8572 c 0,-1.8892 -1.039,-2.8786 -2.6,-2.8786 -1.149,0 -1.899,0.532 -2.252,1.3423 h -0.095 v -1.2429 h -1.427 v 7.6364 h 1.487 z" />
      <path
         style="fill:#ffffff"
         id="path48"
         d="m 112.552,42.3635 h -1.566 V 40.534 H 109.5 v 1.8295 h -1.119 v 1.1932 h 1.119 v 4.5093 c -0.005,1.387 1.054,2.0582 2.227,2.0333 0.472,-0.0049 0.79,-0.0944 0.964,-0.159 l -0.268,-1.228 c -0.099,0.0199 -0.283,0.0646 -0.522,0.0646 -0.482,0 -0.915,-0.1591 -0.915,-1.0192 v -4.201 h 1.566 z" />
      <path
         style="fill:#ffffff"
         id="path50"
         d="m 117.406,50.154 c 1.665,0 2.844,-0.8203 3.182,-2.0632 l -1.407,-0.2535 c -0.269,0.7208 -0.915,1.0887 -1.76,1.0887 -1.273,0 -2.128,-0.8252 -2.168,-2.2968 h 5.429 v -0.527 c 0,-2.7592 -1.651,-3.8381 -3.381,-3.8381 -2.127,0 -3.529,1.6208 -3.529,3.9673 0,2.3715 1.382,3.9226 3.634,3.9226 z m -2.148,-4.6385 c 0.06,-1.0838 0.845,-2.0234 2.053,-2.0234 1.154,0 1.909,0.8551 1.914,2.0234 z" />
      <path
         style="fill:#ffffff"
         id="path52"
         d="m 122.331,49.9999 h 1.487 v -4.6633 c 0,-0.9993 0.77,-1.7202 1.824,-1.7202 0.309,0 0.657,0.0547 0.776,0.0895 V 42.284 c -0.149,-0.0199 -0.442,-0.0348 -0.631,-0.0348 -0.895,0 -1.661,0.5071 -1.939,1.3274 h -0.08 v -1.2131 h -1.437 z" />
      <path
         style="fill:#ffffff"
         id="path54"
         d="m 131.79,42.3635 h -1.646 v -0.686 c 0,-0.6762 0.279,-1.0441 1.004,-1.0441 0.309,0 0.527,0.0696 0.667,0.1144 l 0.348,-1.2031 c -0.209,-0.0796 -0.642,-0.2039 -1.243,-0.2039 -1.208,0 -2.267,0.706 -2.267,2.1378 v 0.8849 h -1.179 v 1.1932 h 1.179 v 6.4432 h 1.491 v -6.4432 h 1.646 z" />
      <path
         style="fill:#ffffff"
         id="path56"
         d="m 135.313,50.1689 c 1.263,0 1.974,-0.6413 2.258,-1.213 h 0.059 v 1.044 h 1.452 v -5.071 c 0,-2.2223 -1.75,-2.6648 -2.963,-2.6648 -1.382,0 -2.655,0.5568 -3.152,1.9489 l 1.397,0.3182 c 0.219,-0.5419 0.775,-1.064 1.775,-1.064 0.959,0 1.451,0.5022 1.451,1.3672 v 0.0348 c 0,0.5419 -0.556,0.532 -1.929,0.6911 -1.446,0.169 -2.928,0.5469 -2.928,2.2819 0,1.5015 1.129,2.3267 2.58,2.3267 z m 0.324,-1.1931 c -0.841,0 -1.447,-0.3779 -1.447,-1.1137 0,-0.7954 0.706,-1.0788 1.566,-1.1932 0.482,-0.0646 1.626,-0.1938 1.839,-0.4076 v 0.9844 c 0,0.9048 -0.72,1.7301 -1.958,1.7301 z" />
      <path
         style="fill:#ffffff"
         id="path58"
         d="m 144.278,50.154 c 1.805,0 2.973,-1.0838 3.138,-2.5703 h -1.447 c -0.189,0.8253 -0.83,1.3125 -1.681,1.3125 -1.257,0 -2.068,-1.049 -2.068,-2.7145 0,-1.6356 0.826,-2.6647 2.068,-2.6647 0.945,0 1.522,0.5965 1.681,1.3125 h 1.447 c -0.16,-1.5412 -1.417,-2.5654 -3.152,-2.5654 -2.153,0 -3.545,1.6208 -3.545,3.9524 0,2.3019 1.342,3.9375 3.559,3.9375 z" />
      <path
         style="fill:#ffffff"
         id="path60"
         d="m 152.296,50.154 c 1.666,0 2.844,-0.8203 3.182,-2.0632 l -1.407,-0.2535 c -0.268,0.7208 -0.915,1.0887 -1.76,1.0887 -1.272,0 -2.128,-0.8252 -2.167,-2.2968 h 5.429 v -0.527 c 0,-2.7592 -1.651,-3.8381 -3.381,-3.8381 -2.128,0 -3.53,1.6208 -3.53,3.9673 0,2.3715 1.382,3.9226 3.634,3.9226 z m -2.147,-4.6385 c 0.059,-1.0838 0.845,-2.0234 2.053,-2.0234 1.153,0 1.909,0.8551 1.914,2.0234 z" />
      <path
         style="fill:#ffffff"
         id="path62"
         d="m 162.944,44.2279 c -0.308,-1.1882 -1.238,-1.9638 -2.888,-1.9638 -1.725,0 -2.948,0.9098 -2.948,2.2621 0,1.0838 0.656,1.8047 2.088,2.1229 l 1.292,0.2833 c 0.736,0.1641 1.079,0.4922 1.079,0.9695 0,0.5916 -0.631,1.054 -1.606,1.054 -0.89,0 -1.461,-0.3828 -1.64,-1.1335 l -1.437,0.2187 c 0.248,1.3523 1.372,2.1129 3.087,2.1129 1.845,0 3.122,-0.9794 3.122,-2.3615 0,-1.0788 -0.686,-1.745 -2.088,-2.0682 l -1.213,-0.2784 c -0.84,-0.1988 -1.203,-0.4822 -1.198,-0.9993 -0.005,-0.5866 0.632,-1.0042 1.477,-1.0042 0.924,0 1.352,0.5121 1.526,1.0241 z" />
      <path
         style="fill:#ffffff"
         id="path64"
         d="m 165.707,50.0944 c 0.542,0 0.995,-0.4425 0.995,-0.9943 0,-0.5419 -0.453,-0.9894 -0.995,-0.9894 -0.547,0 -0.994,0.4475 -0.994,0.9894 0,0.5518 0.447,0.9943 0.994,0.9943 z" />
      <g
         style="opacity:0.56000001"
         id="g88">
        <path
           style="fill:#ffffff"
           id="path66"
           d="m 34.6669,71.4929 c 1.6797,0 2.6634,-1.3707 2.6634,-3.7536 0,-2.365 -0.9979,-3.7393 -2.6634,-3.7393 -1.669,0 -2.6633,1.3707 -2.6669,3.7393 0,2.3793 0.9837,3.75 2.6669,3.7536 z m 0,-0.9482 c -0.9837,0 -1.5767,-0.9872 -1.5767,-2.8054 0.0036,-1.811 0.5966,-2.8089 1.5767,-2.8089 0.9766,0 1.5732,0.9979 1.5732,2.8089 0,1.8182 -0.5931,2.8054 -1.5732,2.8054 z" />
        <path
           style="fill:#ffffff"
           id="path68"
           d="m 41.3493,64.0994 h -1.0689 l -1.8147,1.1861 v 1.0511 l 1.7401,-1.1363 h 0.0426 v 6.1719 h 1.1009 z" />
        <path
           style="fill:#ffffff"
           id="path70"
           d="m 44.0304,66.8267 c 0.387,0 0.7102,-0.316 0.7102,-0.7102 0,-0.3871 -0.3232,-0.7067 -0.7102,-0.7067 -0.3907,0 -0.7103,0.3196 -0.7103,0.7067 0,0.3942 0.3196,0.7102 0.7103,0.7102 z m 0,3.6435 c 0.387,0 0.7102,-0.3161 0.7102,-0.7103 0,-0.387 -0.3232,-0.7066 -0.7102,-0.7066 -0.3907,0 -0.7103,0.3196 -0.7103,0.7066 0,0.3942 0.3196,0.7103 0.7103,0.7103 z" />
        <path
           style="fill:#ffffff"
           id="path72"
           d="M 48.9078,64.0994 H 47.839 l -1.8147,1.1861 v 1.0511 l 1.7401,-1.1363 h 0.0426 v 6.1719 h 1.1008 z" />
        <path
           style="fill:#ffffff"
           id="path74"
           d="m 50.8752,71.3722 h 4.7869 V 70.4311 H 52.388 v -0.0533 l 1.4453,-1.5127 c 1.3317,-1.3459 1.7116,-1.9887 1.7116,-2.8019 0,-1.1683 -0.9517,-2.0632 -2.3224,-2.0632 -1.3601,0 -2.3544,0.8807 -2.3544,2.2088 h 1.0476 c -0.0036,-0.7812 0.5007,-1.2926 1.2855,-1.2926 0.7386,0 1.2997,0.4545 1.2997,1.179 0,0.6427 -0.3835,1.1044 -1.1648,1.9318 l -2.4609,2.5497 z" />
        <path
           style="fill:#ffffff"
           id="path76"
           d="m 59.7539,71.3722 h 1.0973 v -2.5569 h 1.4915 c 1.6868,0 2.5213,-1.0191 2.5213,-2.3615 0,-1.3387 -0.8274,-2.3544 -2.5178,-2.3544 h -2.5923 z m 1.0973,-3.4873 v -2.8444 h 1.3778 c 1.0867,0 1.5306,0.5895 1.5306,1.4133 0,0.8239 -0.4439,1.4311 -1.5163,1.4311 z" />
        <path
           style="fill:#ffffff"
           id="path78"
           d="m 66.1504,64.0994 v 7.2728 h 1.044 v -5.2664 h 0.0675 l 2.1449,5.2557 h 0.8665 l 2.1448,-5.2521 h 0.0675 v 5.2628 h 1.0441 V 64.0994 H 72.198 l -2.3154,5.6534 h -0.0852 l -2.3153,-5.6534 z" />
        <path
           style="fill:#ffffff"
           id="path80"
           d="m 76.4212,70.3778 h -1.0228 l -0.0355,0.3978 c -0.0816,0.9623 -0.3089,1.9318 -0.4048,2.3721 h 0.7528 c 0.1705,-0.4652 0.5469,-1.5305 0.657,-2.3828 z" />
        <path
           style="fill:#ffffff"
           id="path82"
           d="M 84.5018,66.0099 H 85.56 C 85.5281,64.8452 84.4982,64 83.021,64 c -1.4596,0 -2.5782,0.8345 -2.5782,2.0881 0,1.012 0.7245,1.6051 1.8928,1.9211 l 0.8594,0.2344 c 0.7777,0.206 1.3778,0.4617 1.3778,1.108 0,0.7102 -0.6783,1.1789 -1.6122,1.1789 -0.8452,0 -1.5483,-0.3764 -1.6122,-1.1683 h -1.1009 c 0.071,1.3175 1.0902,2.1307 2.7202,2.1307 1.7081,0 2.6917,-0.8984 2.6917,-2.1307 0,-1.3104 -1.1683,-1.8182 -2.0916,-2.0454 l -0.7102,-0.1847 c -0.5682,-0.1456 -1.3246,-0.4119 -1.321,-1.108 0,-0.6179 0.5646,-1.0759 1.4595,-1.0759 0.8345,0 1.4275,0.3906 1.5057,1.0617 z" />
        <path
           style="fill:#ffffff"
           id="path84"
           d="m 88.4728,71.4929 c 0.902,0 1.4098,-0.4581 1.6122,-0.8665 h 0.0427 v 0.7458 h 1.0369 V 67.75 c 0,-1.5874 -1.25,-1.9034 -2.1165,-1.9034 -0.9872,0 -1.8963,0.3977 -2.2514,1.392 l 0.9979,0.2273 c 0.1562,-0.3871 0.5539,-0.7599 1.2677,-0.7599 0.6854,0 1.037,0.3586 1.037,0.9765 v 0.0249 c 0,0.3871 -0.3978,0.38 -1.3779,0.4936 -1.0334,0.1207 -2.0916,0.3906 -2.0916,1.63 0,1.0724 0.8061,1.6619 1.843,1.6619 z m 0.2309,-0.8523 c -0.6002,0 -1.0334,-0.2699 -1.0334,-0.7954 0,-0.5682 0.5042,-0.7706 1.1186,-0.8523 0.3444,-0.0462 1.1612,-0.1385 1.3139,-0.2912 v 0.7031 c 0,0.6463 -0.5149,1.2358 -1.3991,1.2358 z" />
        <path
           style="fill:#ffffff"
           id="path86"
           d="m 95.125,65.9176 h -1.1186 v -1.3068 h -1.0618 v 1.3068 h -0.799 v 0.8523 h 0.799 v 3.2209 c -0.0035,0.9907 0.7528,1.4701 1.5909,1.4524 0.3374,-0.0036 0.5646,-0.0675 0.6889,-0.1137 l -0.1917,-0.8771 c -0.0711,0.0142 -0.2024,0.0462 -0.3729,0.0462 -0.3445,0 -0.6534,-0.1137 -0.6534,-0.728 v -3.0007 h 1.1186 z" />
      </g>
    </g>
  </g>
  <defs
     id="defs112">
    <filter
       style="color-interpolation-filters:sRGB"
       filterUnits="userSpaceOnUse"
       height="124"
       width="200"
       y="0"
       x="0"
       id="filter0_d">
      <feFlood
         id="feFlood94"
         result="BackgroundImageFix"
         flood-opacity="0" />
      <feColorMatrix
         id="feColorMatrix96"
         values="0 0 0 0 0 0 0 0 0 0 0 0 0 0 0 0 0 0 127 0"
         type="matrix"
         in="SourceAlpha" />
      <feOffset
         id="feOffset98"
         dy="16" />
      <feGaussianBlur
         id="feGaussianBlur100"
         stdDeviation="8" />
      <feColorMatrix
         id="feColorMatrix102"
         values="0 0 0 0 0 0 0 0 0 0 0 0 0 0 0 0 0 0 0.1 0"
         type="matrix" />
      <feBlend
         id="feBlend104"
         result="effect1_dropShadow"
         in2="BackgroundImageFix"
         mode="normal" />
      <feBlend
         id="feBlend106"
         result="shape"
         in2="effect1_dropShadow"
         in="SourceGraphic"
         mode="normal" />
    </filter>
    <clipPath
       id="clip0">
      <rect
         style="fill:#ffffff"
         id="rect109"
         height="61.147701"
         width="136"
         y="12"
         x="32" />
    </clipPath>
  </defs>
</svg>
